HIERARCHY
ROOT Hips
{
	OFFSET 0.000000 0.000000 0.000000
	CHANNELS 6 Xposition Yposition Zposition Zrotation Yrotation Xrotation 
	JOINT LHipJoint
	{
		OFFSET 0.000000 0.000000 0.000000
		CHANNELS 3 Zrotation Yrotation Xrotation
		JOINT LeftUpLeg
		{
			OFFSET 1.363060 -1.794630 0.839290
			CHANNELS 3 Zrotation Yrotation Xrotation
			JOINT LeftLeg
			{
				OFFSET 2.448110 -6.726130 0.000000
				CHANNELS 3 Zrotation Yrotation Xrotation
				JOINT LeftFoot
				{
					OFFSET 2.562200 -7.039590 0.000000
					CHANNELS 3 Zrotation Yrotation Xrotation
					JOINT LeftToeBase
					{
						OFFSET 0.157640 -0.433110 2.322550
						CHANNELS 3 Zrotation Yrotation Xrotation
						End Site
						{
							OFFSET 0.000000 0.000000 0.000000
						}
					}
				}
			}
		}
	}
	JOINT RHipJoint
	{
		OFFSET 0.000000 0.000000 0.000000
		CHANNELS 3 Zrotation Yrotation Xrotation
		JOINT RightUpLeg
		{
			OFFSET -1.305520 -1.794630 0.839290
			CHANNELS 3 Zrotation Yrotation Xrotation
			JOINT RightLeg
			{
				OFFSET -2.542530 -6.985550 0.000000
				CHANNELS 3 Zrotation Yrotation Xrotation
				JOINT RightFoot
				{
					OFFSET -2.568260 -7.056230 0.000000
					CHANNELS 3 Zrotation Yrotation Xrotation
					JOINT RightToeBase
					{
						OFFSET -0.164730 -0.452590 2.363150
						CHANNELS 3 Zrotation Yrotation Xrotation
						End Site
						{
							OFFSET 0.000000 0.000000 0.000000
						}
					}
				}
			}
		}
	}
}
MOTION
Frames: 30
Frame Time: 0.008333
6.357315 16.451428 0.866526 22.239435 79.849892 29.303917 -8.854127 0.106310 2.937030 -15.858964 -3.823547 -40.118774 -1.606137 1.027820 32.859934 1.545995 8.509922 -4.434646 0.759500 0.000000 -15.172500 11.918927 -4.903579 -1.201686 -3.105270 -12.381116 4.529917 -0.100054 -3.306336 39.101280 -0.502099 12.163323 27.388788 7.179300 0.000000 -84.834700
6.565109 16.382421 0.885110 24.245428 79.672554 30.928944 -8.745219 0.138918 2.648874 -16.740230 -3.408388 -40.284588 -1.520000 1.211907 35.710146 1.622837 8.718079 -5.726558 0.523901 0.000000 -14.037000 12.249800 -4.732534 -1.384973 -4.449926 -13.158555 3.063527 -0.325288 -3.475675 43.057341 -0.793948 10.173425 28.347514 6.338701 -0.000000 -81.888400
6.766341 16.311978 0.902725 26.148501 79.424375 32.419888 -8.626063 0.184616 2.332357 -17.657386 -2.885184 -40.295951 -1.461511 1.376619 38.356854 1.699546 8.882756 -7.242631 0.235100 0.000000 -13.063100 12.571764 -4.518968 -1.582894 -5.779455 -13.846181 1.569081 -0.549016 -3.665385 47.080810 -1.109539 7.257209 28.684716 4.845400 -0.000000 -78.494100
6.961429 16.241737 0.919500 27.963896 79.124815 33.796294 -8.496740 0.245802 1.998748 -18.590200 -2.300685 -40.127818 -1.429875 1.522087 40.755408 1.775640 9.003082 -8.927985 -0.096800 0.000000 -12.293000 12.884714 -4.268701 -1.793133 -7.081219 -14.441327 0.058726 -0.775406 -3.882374 51.115289 -1.446698 3.577903 28.296280 2.842400 0.000000 -74.602001
7.151038 16.173567 0.935384 29.693973 78.792565 35.067454 -8.359467 0.322973 1.659080 -19.515750 -1.697838 -39.766575 -1.422604 1.648995 42.873590 1.850820 9.080546 -10.717533 -0.457800 -0.000000 -11.759100 13.186661 -3.989935 -2.012108 -8.338759 -14.942555 -1.457951 -1.008746 -4.130121 55.094756 -1.798811 -0.581561 27.124235 0.589601 0.000000 -70.155200
7.335981 16.109327 0.950183 31.341398 78.444302 36.246397 -8.216644 0.415043 1.324164 -20.414342 -1.116062 -39.213060 -1.436046 1.758435 44.692430 1.925336 9.122512 -12.541336 -0.831900 -0.000001 -11.474400 13.475593 -3.692391 -2.234540 -9.537146 -15.351450 -2.979146 -1.252673 -4.407739 58.950912 -2.153604 -4.864851 25.180536 -1.591800 -0.000000 -65.135600
7.517261 16.050781 0.963690 32.904027 78.094517 37.344167 -8.070921 0.519568 1.003963 -21.270012 -0.588972 -38.480895 -1.465738 1.851765 46.205438 1.999821 9.141871 -14.331255 -1.203700 0.000000 -11.424500 13.748918 -3.385847 -2.453405 -10.660251 -15.670301 -4.510102 -1.508550 -4.709184 62.617079 -2.494060 -8.916176 22.556625 -3.403400 0.000000 -59.592300
7.695815 15.999477 0.975570 34.361640 77.757084 38.355447 -7.927306 0.632303 0.706036 -22.065294 -0.139236 -37.597258 -1.506657 1.930858 47.421524 2.074755 9.153752 -16.029199 -1.560399 0.000000 -11.562100 14.001146 -3.078942 -2.661466 -11.683677 -15.900413 -6.059560 -1.773764 -5.023638 66.034048 -2.800764 -12.448526 19.407526 -4.641999 0.000000 -53.658201
7.872681 15.956689 0.985620 35.701997 77.444671 39.283535 -7.789496 0.748930 0.436565 -22.789278 0.218033 -36.595418 -1.554104 1.997146 48.357011 2.150782 9.175849 -17.589639 -1.893700 0.000000 -11.811600 14.227623 -2.778248 -2.851321 -12.584189 -16.046578 -7.639612 -2.040711 -5.337679 69.153706 -3.054152 -15.270554 15.919914 -5.230200 -0.000000 -47.502500
8.048785 15.923445 0.993745 36.910221 77.169590 40.126758 -7.661862 0.865036 0.199386 -23.431996 0.478327 -35.510922 -1.604013 2.051771 49.035106 2.228156 9.223521 -18.983438 -2.199800 0.000000 -12.084300 14.422825 -2.488577 -3.017416 -13.337179 -16.116793 -9.259154 -2.297567 -5.637626 71.939718 -3.236552 -17.284563 12.277653 -5.207900 -0.000000 -41.298900
8.225008 15.900347 1.000043 37.979757 76.942176 40.889339 -7.547927 0.977066 -0.004490 -23.986843 0.646582 -34.376117 -1.653661 2.095493 49.480628 2.306671 9.307073 -20.197731 -2.478100 0.000000 -12.297100 14.582187 -2.212702 -3.156913 -13.921951 -16.122797 -10.922222 -2.530008 -5.911635 74.365507 -3.333781 -18.463833 8.640911 -4.698600 -0.000000 -35.200100
8.402085 15.887801 1.004790 38.910803 76.771010 41.575837 -7.450683 1.082929 -0.175492 -24.449221 0.736691 -33.213800 -1.701801 2.128312 49.713878 2.385411 9.429263 -21.232574 -2.729900 0.000000 -12.391700 14.702268 -1.953067 -3.268289 -14.323603 -16.077626 -12.624232 -2.723252 -6.150405 76.410068 -3.336486 -18.830766 5.140475 -3.870699 -0.000000 -29.337700
8.580686 15.885914 1.008463 39.712730 76.660969 42.195519 -7.371741 1.182122 -0.316044 -24.817557 0.768919 -32.035340 -1.748927 2.149816 49.748036 2.462745 9.584034 -22.098536 -2.956600 0.000000 -12.342200 14.781624 -1.711070 -3.351369 -14.535545 -15.992288 -14.353481 -2.864402 -6.347586 78.058201 -3.241591 -18.443781 1.882589 -2.902700 -0.000000 -23.850101
8.761370 15.894429 1.011662 40.401020 76.612546 42.760799 -7.310903 1.275118 -0.431021 -25.093553 0.766550 -30.841317 -1.797091 2.159417 49.588706 2.536498 9.757198 -22.813957 -3.158800 -0.000000 -12.154201 14.821107 -1.486303 -3.407554 -14.560832 -15.874546 -16.093054 -2.944465 -6.499739 79.300511 -3.053742 -17.392467 -1.043365 -1.954300 -0.000001 -18.920900
8.944576 15.913084 1.015025 40.992308 76.623373 43.277765 -7.267428 1.363818 -0.523707 -25.279867 0.754788 -29.618626 -1.849355 2.155776 49.230175 2.603722 9.927206 -23.398739 -3.335100 -0.000000 -11.861800 14.822769 -1.279078 -3.435641 -14.408144 -15.725624 -17.820859 -2.959901 -6.604694 80.132415 -2.786941 -15.800950 -3.558692 -1.145900 0.000000 -14.808900
9.130638 15.941371 1.019125 41.502363 76.687234 43.750892 -7.239069 1.450061 -0.598751 -25.381378 0.756567 -28.347072 -1.909397 2.137479 48.660034 2.661223 10.068888 -23.872659 -3.482900 -0.000000 -11.517100 14.790192 -1.087314 -3.435601 -14.093341 -15.544440 -19.515200 -2.913349 -6.662167 80.557804 -2.464215 -13.825286 -5.607205 -0.543300 0.000000 -11.820800
9.319886 15.978696 1.024401 41.940862 76.795329 44.175785 -7.223465 1.535603 -0.659968 -25.403019 0.791357 -26.999713 -1.980673 2.102862 47.860212 2.705510 10.156419 -24.249837 -3.597800 -0.000000 -11.184600 14.727072 -0.908276 -3.407582 -13.636335 -15.328852 -21.153048 -2.812554 -6.673002 80.588591 -2.115619 -11.648590 -7.172269 -0.155600 0.000000 -10.196000
9.512523 16.024387 1.031009 42.306371 76.938186 44.537718 -7.218732 1.621151 -0.711229 -25.349073 0.873185 -25.548615 -2.065823 2.050220 46.810386 2.733306 10.167640 -24.537281 -3.674300 -0.000000 -10.933300 14.636137 -0.738215 -3.353958 -13.057231 -15.078436 -22.713808 -2.667587 -6.639350 80.244195 -1.773677 -9.466175 -8.295688 0.053200 0.000001 -9.943500
9.708677 16.077845 1.038815 42.582370 77.106271 44.807378 -7.224942 1.706390 -0.754986 -25.220081 1.010803 -23.968769 -2.165876 1.977808 45.491344 2.741491 10.086751 -24.731095 -3.706400 -0.000000 -10.830000 14.518052 -0.574250 -3.278534 -12.373026 -14.794851 -24.178856 -2.487919 -6.564212 79.549461 -1.467643 -7.463247 -9.077423 0.140699 0.000000 -10.755100
9.908520 16.138414 1.047363 42.732456 77.291650 44.939589 -7.244836 1.789732 -0.792581 -25.012770 1.206721 -22.243112 -2.279699 1.884130 43.889976 2.727660 9.907653 -24.818149 -3.688800 0.000000 -10.930000 14.370892 -0.414980 -3.186672 -11.593895 -14.480944 -25.532774 -2.280857 -6.451030 78.531450 -1.219389 -5.794556 -9.649741 0.163200 -0.000000 -12.116800
10.112107 16.205424 1.056005 42.708851 77.489315 44.882053 -7.283403 1.868849 -0.822738 -24.720327 1.456340 -20.368254 -2.403624 1.768034 42.003588 2.690434 9.635297 -24.777899 -3.618200 0.000000 -11.265200 14.191072 -0.261041 -3.083502 -10.723064 -14.141390 -26.765525 -2.050793 -6.303319 77.216587 -1.041591 -4.566807 -10.158668 0.163400 -0.000000 -13.339500
10.319495 16.278312 1.063807 42.444548 77.699052 44.567991 -7.348375 1.940446 -0.843823 -24.331023 1.749885 -18.351702 -2.531285 1.629038 39.839786 2.629713 9.286991 -24.584380 -3.494600 -0.000000 -11.849200 13.973300 -0.114817 -2.973314 -9.755035 -13.775832 -27.864196 -1.802485 -6.122450 75.615901 -0.941098 -3.842686 -10.670103 0.166600 -0.000000 -14.314300
10.530698 16.356125 1.070039 41.885352 77.924986 43.949290 -7.446608 2.002876 -0.849938 -23.836501 2.070332 -16.221221 -2.653900 1.468094 37.428778 2.547311 8.889581 -24.216451 -3.322800 0.000000 -12.652600 13.714100 0.020229 -2.858015 -8.683499 -13.391505 -28.826218 -1.538309 -5.910425 73.739879 -0.918299 -3.626845 -11.258787 0.192500 0.000000 -14.617200
10.745654 16.437961 1.074040 40.973150 78.175136 42.977318 -7.585158 2.055434 -0.835544 -23.227065 2.399397 -14.016420 -2.761238 1.287976 34.815330 2.446269 8.475501 -23.657388 -3.110900 0.000000 -13.631899 13.410729 0.140391 -2.738455 -7.498130 -12.994221 -29.647160 -1.262011 -5.667566 71.582008 -0.971360 -3.885496 -11.920601 0.252999 0.000000 -14.265000
10.964253 16.522769 1.075424 39.662290 78.460583 41.618537 -7.769053 2.099994 -0.795156 -22.496121 2.720500 -11.788501 -2.843016 1.094056 32.062766 2.330519 8.075543 -22.901507 -2.869100 0.000000 -14.733100 13.063003 0.242264 -2.614527 -6.191385 -12.593714 -30.324509 -0.977892 -5.394114 69.127843 -1.095334 -4.549031 -12.616801 0.354300 0.000000 -13.317200
11.186271 16.609326 1.074310 37.921771 78.792996 39.853739 -7.999936 2.141281 -0.724762 -21.640938 3.024041 -9.595569 -2.890683 0.894310 29.248814 2.204086 7.711776 -21.955489 -2.606900 -0.000000 -15.910000 12.674163 0.322495 -2.485272 -4.760404 -12.202060 -30.855931 -0.691328 -5.090656 66.358122 -1.281604 -5.523404 -13.276149 0.492500 0.000000 -11.919900
11.411392 16.696357 1.071203 35.734046 79.182289 37.674680 -8.275339 2.186270 -0.623545 -20.663101 3.310442 -7.496606 -2.899256 0.698855 26.459596 2.070100 7.390851 -20.837657 -2.331500 0.000001 -17.138100 12.251027 0.378223 -2.349647 -3.211227 -11.832238 -31.238085 -0.408499 -4.758457 63.251819 -1.517050 -6.701644 -13.803542 0.649300 0.000000 -10.324200
11.639181 16.782471 1.067160 33.101960 79.636520 35.088434 -8.587228 2.243241 -0.494240 -19.570671 3.591158 -5.543398 -2.868539 0.518487 23.781386 1.930306 7.101358 -19.576029 -2.047800 0.000000 -18.421900 11.804713 0.406402 -2.206303 -1.560525 -11.497775 -31.465141 -0.135249 -4.399920 59.790714 -1.783955 -7.974917 -14.095930 0.791200 -0.000000 -8.857900
11.869180 16.866316 1.063561 30.045928 80.158494 32.116456 -8.923061 2.320025 -0.343346 -18.379924 3.883138 -3.775771 -2.803541 0.363057 21.289722 1.785142 6.817726 -18.202954 -1.758701 -0.000000 -19.792100 11.349085 0.405557 -2.054664 0.162930 -11.210890 -31.531528 0.124596 -4.017960 55.963511 -2.061364 -9.242026 -14.065225 0.875200 0.000000 -7.817200
12.100693 16.946422 1.062046 26.596804 80.752649 28.782238 -9.266858 2.421782 -0.180673 -17.108840 4.209363 -2.216278 -2.712959 0.239813 19.047360 1.633132 6.499032 -16.752989 -1.467200 -0.000000 -21.316300 10.900275 0.373892 -1.893751 1.923205 -10.981617 -31.430166 0.371225 -3.615909 51.768964 -2.327861 -10.419407 -13.658444 0.859400 -0.000000 -7.381100
